# xmcd CD database file
#
# Track frame offsets:
#	150
#	22125
#	42450
#	66075
#	87450
#	110175
#	129825
#	154500
#	174075
#	193125
#	217800
#	238275
#	256800
#	278775
#
# Disc length: 3910 seconds
#
# Revision: 1
# Processed by: cddbd v1.5.1PL2 Copyright (c) Steve Scherf et al.
# Submitted via: freeDBTagger 0.8.2.1
#
DISCID=c50f440e
DTITLE=Stardust Revue - BEST
DYEAR=1900
DGENRE=rock
TTITLE0=木蓮の涙
TTITLE1=夢伝説
TTITLE2=会えないよ
TTITLE3=もう一度抱きしめて
TTITLE4=追憶
TTITLE5=今夜だけきっと
TTITLE6=ふたり
TTITLE7=想い出にかわるまで
TTITLE8=流星物語
TTITLE9=Stay My Blue〜君が恋しくて
TTITLE10=エトランゼ
TTITLE11=トワイライトアベニュー
TTITLE12=夏の終わりに
TTITLE13=言葉じゃいえないLoneliness
EXTD=
EXTT0=
EXTT1=
EXTT2=
EXTT3=
EXTT4=
EXTT5=
EXTT6=
EXTT7=
EXTT8=
EXTT9=
EXTT10=
EXTT11=
EXTT12=
EXTT13=
PLAYORDER=
